<svg xmlns="http://www.w3.org/2000/svg" width="144" height="25" viewBox="0 0 144 25" fill="none">
<path d="M134.047 11.6128L141.788 3.70962L139.734 1.61285L131.993 9.51605L134.047 11.6128Z" fill="#ee122c"/>
<path d="M128.518 0H125.674V8.54836H128.518V0Z" fill="#ee122c"/>
<path d="M144 14.9999H135.469V17.9032H144V14.9999Z" fill="#ee122c"/>
<path d="M126.78 21.7742C125.2 21.7742 123.304 20.4839 123.304 18.0645C123.304 16.7742 124.252 14.3548 126.78 14.3548C128.991 14.3548 130.413 16.129 130.413 18.0645C130.255 20.4839 128.36 21.7742 126.78 21.7742ZM133.415 18.0645C133.415 14.0323 130.097 11.129 126.78 11.129C122.83 11.129 120.144 14.5161 120.144 18.0645C120.144 22.0968 123.462 25 126.78 25C130.255 25 133.415 22.0968 133.415 18.0645Z" fill="#ee122c"/>
<path d="M84.5978 7.74191C79.3843 7.74191 76.2246 12.0967 76.2246 16.2903C76.2246 21.4515 80.3322 24.8386 84.5978 24.8386C88.3894 24.8386 91.7071 22.0967 92.497 18.5483H89.1793C88.7054 19.3548 87.2835 21.6128 84.5978 21.6128C82.228 21.6128 79.5423 19.6774 79.5423 16.2903C79.5423 13.5483 81.4381 10.9677 84.5978 10.9677C87.2835 10.9677 88.5474 13.0645 89.1793 14.0322H92.497C92.0231 11.7742 89.3373 7.74191 84.5978 7.74191Z" fill="#ee122c"/>
<path d="M106.242 18.5484L106.874 18.2258V19.5161C106.874 20.6451 106.558 21.4516 105.926 21.9355C105.294 22.258 104.662 22.5806 104.03 22.5806C103.556 22.5806 102.45 22.4193 102.45 20.9677C102.45 20.3226 102.766 19.1935 104.82 19.0322L106.242 18.5484ZM104.82 11.129C99.9223 11.129 99.4484 14.0323 99.2904 15.8064H102.45C102.608 15 102.766 14.0323 104.662 14.0323C106.716 14.0323 106.874 15 106.874 15.4839C106.874 15.9677 106.4 16.4516 106.084 16.4516C102.924 16.9355 101.976 17.0968 100.87 17.7419C99.6064 18.3871 99.1324 19.6774 99.1324 21.2903C99.1324 24.5161 101.818 25 102.766 25C104.504 25 105.926 24.5161 106.874 23.7097V25H110.033V15.3226C110.191 12.5807 108.454 11.129 104.82 11.129Z" fill="#ee122c"/>
<path d="M97.2367 7.74191H94.077V24.8386H97.2367V7.74191Z" fill="#ee122c"/>
<path d="M115.405 13.3871V11.7742H112.403V24.8387H115.563V18.5484C115.563 17.4193 115.721 16.7742 115.879 16.2903C116.195 15.8064 117.301 14.5161 118.881 14.5161H119.828C119.828 14.5161 119.828 11.4516 119.828 11.129C117.775 11.2903 116.353 12.0968 115.405 13.3871Z" fill="#ee122c"/>
<path d="M12.4441 9.83668V6.67126H0V9.83668H4.52955V24.8469H7.91454V9.83668H12.4441Z" fill="#ee122c"/>
<path d="M18.1496 9.27507V6.56915H14.9107V9.27507H18.1496ZM18.1253 24.8469V11.547H14.9594V24.8469H18.1253Z" fill="#ee122c"/>
<path d="M32.0887 19.2308V17.7502C32.0887 14.0998 30.0918 11.3939 26.5607 11.3939C23.2731 11.3939 21.0327 13.8445 21.0327 18.1842C21.0327 23.5705 23.9063 25 26.9017 25C29.1908 25 30.4328 24.2597 31.7234 22.9068L29.7996 20.9412C28.996 21.7836 28.3141 22.192 26.926 22.192C25.1483 22.192 24.1498 20.9412 24.1498 19.2308H32.0887ZM28.9716 16.9589H24.1498C24.1742 16.3717 24.2472 16.0143 24.4421 15.5293C24.783 14.738 25.4892 14.1508 26.5607 14.1508C27.6322 14.1508 28.3384 14.738 28.6794 15.5293C28.8742 16.0143 28.9473 16.3717 28.9716 16.9589Z" fill="#ee122c"/>
<path d="M45.552 24.8469V16.3462C45.552 14.8911 45.2841 13.6403 44.2613 12.5681C43.5551 11.8278 42.5323 11.3939 41.266 11.3939C40.0971 11.3939 38.9281 11.8534 38.1002 12.7723V11.547H35.0074V24.8469H38.1732V16.8057C38.1732 14.9932 39.2934 14.3806 40.2919 14.3806C41.2903 14.3806 42.3862 14.9932 42.3862 16.8057V24.8469H45.552Z" fill="#ee122c"/>
<path d="M59.0735 24.8469V6.67126H55.9077V12.7213C55.0797 11.7512 54.1056 11.3939 52.8149 11.3939C51.573 11.3939 50.4284 11.8534 49.7222 12.5937C48.4558 13.9211 48.4315 16.193 48.4315 18.1842C48.4315 20.1753 48.4558 22.4728 49.7222 23.8003C50.4284 24.5406 51.5973 25 52.8393 25C54.1787 25 55.1041 24.6171 55.9808 23.596V24.8469H59.0735ZM55.9077 18.1842C55.9077 20.354 55.6398 22.0133 53.7403 22.0133C51.8408 22.0133 51.5973 20.354 51.5973 18.1842C51.5973 16.0143 51.8408 14.3806 53.7403 14.3806C55.6398 14.3806 55.9077 16.0143 55.9077 18.1842Z" fill="#ee122c"/>
<path d="M72.2128 24.8469V16.0909C72.2128 12.9766 70.362 11.3939 66.8066 11.3939C64.6879 11.3939 63.4703 11.8023 62.2283 13.2318L64.2495 15.2996C64.9071 14.5082 65.4672 14.2019 66.6848 14.2019C68.3651 14.2019 69.047 14.8401 69.047 16.2952V16.9589H66.0516C63.105 16.9589 61.7169 18.6947 61.7169 20.8135C61.7169 21.9878 62.0822 23.06 62.764 23.8003C63.519 24.5916 64.5661 24.9745 66.0029 24.9745C67.4641 24.9745 68.2677 24.5916 69.12 23.6981V24.8469H72.2128ZM69.047 19.9456C69.047 20.7625 68.9252 21.2986 68.5843 21.6304C68.0242 22.192 67.4641 22.2686 66.5874 22.2686C65.3454 22.2686 64.7609 21.6559 64.7609 20.7369C64.7609 19.7924 65.3941 19.2308 66.5387 19.2308H69.047V19.9456Z" fill="#ee122c"/>
</svg>